<?xml version="1.0" encoding="UTF-8" standalone="no"?>
<svg
   xmlns:dc="http://purl.org/dc/elements/1.1/"
   xmlns:cc="http://creativecommons.org/ns#"
   xmlns:rdf="http://www.w3.org/1999/02/22-rdf-syntax-ns#"
   xmlns:svg="http://www.w3.org/2000/svg"
   xmlns="http://www.w3.org/2000/svg"
   xmlns:sodipodi="http://sodipodi.sourceforge.net/DTD/sodipodi-0.dtd"
   xmlns:inkscape="http://www.inkscape.org/namespaces/inkscape"
   version="1.0"
   width="800.000000pt"
   height="787.200000pt"
   viewBox="0 0 800.000000 787.200000"
   preserveAspectRatio="xMidYMid meet"
   id="svg1398"
   sodipodi:docname="polarad_icon.svg"
   inkscape:version="0.92.4 (33fec40, 2019-01-16)">
  <defs
     id="defs1402" />
  <sodipodi:namedview
     pagecolor="#ffffff"
     bordercolor="#666666"
     borderopacity="1"
     objecttolerance="10"
     gridtolerance="10"
     guidetolerance="10"
     inkscape:pageopacity="0"
     inkscape:pageshadow="2"
     inkscape:window-width="1920"
     inkscape:window-height="1015"
     id="namedview1400"
     showgrid="false"
     inkscape:zoom="0.63596493"
     inkscape:cx="836.62848"
     inkscape:cy="619.44316"
     inkscape:window-x="0"
     inkscape:window-y="0"
     inkscape:window-maximized="1"
     inkscape:current-layer="layer4" />
  <metadata
     id="metadata1386">
Created by potrace 1.13, written by Peter Selinger 2001-2015
<rdf:RDF>
  <cc:Work
     rdf:about="">
    <dc:format>image/svg+xml</dc:format>
    <dc:type
       rdf:resource="http://purl.org/dc/dcmitype/StillImage" />
  </cc:Work>
</rdf:RDF>
</metadata>
  <g
     transform="translate(0.000000,787.200000) scale(0.080000,-0.080000)"
     id="g1396"
     stroke="none"
     fill="#000000">
    <path
       d="M4117 5129 c-24 -14 -47 -69 -47 -109 0 -43 32 -121 69 -167 l31 -39 -21 -48 c-11 -26 -31 -91 -44 -144 -20 -79 -29 -101 -51 -117 -175 -128 -236 -231 -177 -297 31 -34 61 -22 151 62 48 44 95 80 105 80 20 0 147 -95 147 -110 0 -13 95 -80 113 -80 27 0 57 49 57 92 0 37 -7 47 -93 132 -51 50 -96 100 -100 110 -8 21 5 84 41 187 l26 76 46 12 c59 15 167 78 192 111 44 59 31 148 -25 177 -90 46 -381 96 -420 72z"
       id="path1392" />
    <path
       d="M1910 4579 c-80 -21 -167 -43 -194 -49 -54 -11 -111 -42 -120 -66 -12 -31 -5 -90 14 -121 41 -68 85 -68 320 1 130 38 159 50 183 76 44 49 30 145 -28 179 -30 18 -32 18 -175 -20z m39 -101 c14 -25 14 -29 -5 -55 -38 -51 -114 -35 -114 25 0 64 88 86 119 30z m-209 -42 c0 -8 -5 -18 -10 -21 -17 -11 -40 3 -34 20 8 19 44 20 44 1z"
       id="path1394" />
  </g>
  <g
     inkscape:groupmode="layer"
     id="layer4"
     inkscape:label="white"
     style="display:inline">
    <path
       style="fill:none;stroke:#000000;stroke-width:0.75px;stroke-linecap:butt;stroke-linejoin:miter;stroke-opacity:1"
       d="m 33.02069,78.434515 566.06897,-25.944831 14.15173,17.689655 18.86896,630.931041 -17.68966,9.43448 c 0,0 -566.068966,15.33103 -557.813793,21.22759 8.255172,5.89655 -10.613793,-31.84138 -10.613793,-31.84138 L 23.586207,86.689682 Z"
       id="path827"
       inkscape:connector-curvature="0" />
    <path
       style="fill:#ffffff;stroke:#000000;stroke-width:0.75px;stroke-linecap:butt;stroke-linejoin:miter;stroke-opacity:1;fill-opacity:1"
       d="M 385.63449,50.131063 219.52,8.8000202 l -7.24413,27.1793188 -9.43449,33.02069 143.87587,-2.35862 z"
       id="path831"
       inkscape:connector-curvature="0" />
    <path
       style="fill:#ffffff;stroke:#000000;stroke-width:0.75px;stroke-linecap:butt;stroke-linejoin:miter;stroke-opacity:1;fill-opacity:1"
       d="m 622.0862,215.82417 27.7138,24.17586 24.17586,25.35517 38.62242,-16.21551 16.21551,-55.13277 -12.97241,-34.19999 -86.67932,-16.80518 -14.74137,-20.93275 c 0,0 4.71724,-35.379318 10.61379,-30.662073 5.89656,4.717238 159.20694,40.096553 159.20694,40.096553 L 672.2069,745.92417 648.4,779.36005 c 0,0 -209.69655,-48.76691 -204.97931,-54.66346 4.71724,-5.89656 171,-14.15173 171,-14.15173 l 17.68965,-9.43448 z"
       id="path833"
       inkscape:connector-curvature="0" />
  </g>
  <g
     inkscape:groupmode="layer"
     id="layer2"
     inkscape:label="BlueStripe">
    <path
       style="fill:#61c0e1;stroke:#61c0e1;stroke-width:0.77447373px;stroke-linecap:butt;stroke-linejoin:miter;stroke-opacity:1;fill-opacity:1"
       d="m 484.61498,111.57741 2.62581,64.25201 48.50834,31.38918 30.40411,-23.43136 -4.83702,-76.48347 z"
       id="path1953"
       inkscape:connector-curvature="0" />
    <path
       style="fill:#61c0e1;stroke:#61c0e1;stroke-width:0.75px;stroke-linecap:butt;stroke-linejoin:miter;stroke-opacity:1;fill-opacity:1"
       d="m 724.68621,168.94659 -12.08793,80.1931 -27.12414,8.25517 -11.49828,7.96034 -32.43103,-36.26379 -19.45863,-13.26724 -9.13965,-36.26379 2.35862,-27.12414 v -3.83276 l 13.8569,-5.60173 31.54655,4.12759 41.57069,9.72932 z"
       id="path1989"
       inkscape:connector-curvature="0" />
    <path
       style="fill:#f6cc61;stroke:#f6cc61;stroke-width:0.75px;stroke-linecap:butt;stroke-linejoin:miter;stroke-opacity:1;fill-opacity:1"
       d="m 324.8034,118.41357 30.4373,45.03051 38.69836,-11.93318 -1.00759,-35.70699 z"
       id="path2008"
       inkscape:connector-curvature="0" />
    <path
       style="fill:#f8ae62;stroke:#f8ae62;stroke-width:0.75px;stroke-linecap:butt;stroke-linejoin:miter;stroke-opacity:1;fill-opacity:1"
       d="m 180.65958,125.62167 9.67564,230.8901 17.28099,-40.62383 18.36954,-22.86821 15.74531,-56.98305 19.11932,-26.24221 -6.37311,-9.74709 -18.74443,-22.86821 5.24844,-28.86641 16.4951,-21.36865 7.12289,-7.87266 z"
       id="path3234"
       inkscape:connector-curvature="0" />
    <path
       style="fill:#e27972;stroke:#e27972;stroke-width:0.75px;stroke-linecap:butt;stroke-linejoin:miter;stroke-opacity:1;fill-opacity:1"
       d="m 180.65958,125.62167 9.06197,225.38095 -3.39052,42.60259 -52.47931,10.61379 -22.99655,9.87673 0.29483,46.73016 3.83276,27.7138 -16.510345,7.07586 -1.916377,-14.74138 -2.948281,-83.14138 -11.056035,-271.09397 z"
       id="path3251"
       inkscape:connector-curvature="0" />
    <path
       style="fill:#dbdbdb;stroke:#dbdbdb;stroke-width:0.75px;stroke-linecap:butt;stroke-linejoin:miter;stroke-opacity:1;fill-opacity:1"
       d="m 213.47797,401.939 17.61611,99.54662 7.71356,58.9983 -35.75339,9.38136 -35.54492,-1.56356 7.60932,-25.32967 2.18898,-9.90254 -1.45932,-11.57034 -5.52457,-11.04915 -8.33899,-10.6322 -10.29596,-8.03503 -15.77328,-5.30689 -10.02413,1.32672 -1.53629,-6.01785 -7.19237,-38.35933 14.17627,-3.54407 2.91864,2.71017 20.84746,-4.16949 12.3,-5.42034 1.45933,-6.87966 -2.08475,-4.37797 -4.79492,-1.25085 -11.04915,2.91865 -18.97118,5.83729 -2.71017,6.87966 1.45932,3.96102 -15.50969,4.07829 1.99009,-25.5763 33.1681,-12.30905 38.03276,-6.4862 z"
       id="path3253"
       inkscape:connector-curvature="0" />
  </g>
  <g
     inkscape:groupmode="layer"
     id="layer3"
     inkscape:label="bb">
    <path
       style="fill:#5dc885;stroke:#5fc885;stroke-width:0.78581762px;stroke-linecap:butt;stroke-linejoin:miter;stroke-opacity:1;fill-opacity:1"
       d="m 484.54322,115.14461 2.08857,62.29705 -92.69273,-25.93076 -0.79565,-34.04728 z"
       id="path1991"
       inkscape:connector-curvature="0" />
  </g>
  <g
     inkscape:groupmode="layer"
     id="layer1"
     inkscape:label="Black">
    <path
       style=""
       d="M2744 9730 c-93 -26 -129 -45 -173 -90 -60 -62 -77 -107 -121 -329 -22 -113 -43 -208 -47 -211 -5 -4 -390 -21 -858 -39 -959 -37 -1069 -43 -1141 -65 -110 -34 -191 -126 -219 -249 -16 -70 -12 -187 139 -3967 163 -4065 157 -3955 203 -4045 40 -78 120 -142 207 -165 58 -16 153 -13 2120 66 l2059 83 1596 -310 1596 -311 73 17 c86 20 176 76 221 137 35 48 44 84 131 538 34 173 79 405 100 515 22 110 67 342 100 515 33 173 78 405 100 515 21 110 66 341 100 513 33 171 87 453 120 625 34 171 79 402 100 512 22 110 67 342 100 515 33 173 78 405 100 515 21 110 66 341 100 513 33 171 87 453 120 625 34 171 79 402 100 512 22 110 66 340 99 510 33 171 87 447 120 614 l59 304 -18 64 c-21 77 -84 164 -152 209 -28 19 -76 38 -119 48 -71 16 -1869 366 -1880 366 -4 0 -9 44 -12 98 -3 53 -13 124 -22 157 -33 122 -123 211 -247 244 -61 17 -100 16 -1021 -21 l-958 -39 -1262 245 c-694 135 -1305 254 -1358 264 -91 17 -100 17 -155 2z m896 -401 c437 -85 788 -155 780 -156 -30 -6 -1744 -72 -1748 -68 -8 8 50 299 65 328 15 29 67 59 93 53 8 -1 373 -72 810 -157z m3815 -307 c17 -10 36 -30 42 -43 9 -17 57 -1135 167 -3913 133 -3360 153 -3893 141 -3916 -8 -15 -27 -35 -42 -45 -26 -17 -283 -29 -3491 -157 l-3463 -138 -30 22 c-17 13 -33 37 -39 58 -8 32 -311 7582 -310 7746 0 70 6 86 43 114 15 11 674 40 3420 151 1871 75 3431 137 3467 138 47 1 73 -4 95 -17z m1257 -677 c535 -104 911 -181 925 -191 14 -8 31 -30 38 -47 12 -29 -47 -340 -730 -3859 -408 -2106 -748 -3835 -755 -3844 -19 -22 -65 -44 -91 -44 -26 0 -2092 400 -2098 406 -2 2 20 4 50 4 30 0 428 16 884 35 891 36 895 37 978 94 83 57 116 108 140 216 15 63 15 105 2 425 -8 195 -17 398 -19 451 l-6 96 50 31 c33 21 63 51 88 91 45 69 42 54 171 722 50 255 275 1418 501 2584 401 2067 411 2121 400 2175 -26 119 -107 216 -204 245 -28 9 -319 68 -646 131 -327 64 -596 117 -597 118 -2 2 -6 78 -10 169 -6 153 -5 167 11 167 9 0 423 -79 918 -175z m-272 -540 c465 -88 507 -98 528 -121 14 -17 22 -38 22 -62 0 -20 -33 -206 -73 -412 l-73 -375 -29 -3 c-100 -11 -230 -66 -305 -129 l-32 -26 -86 90 c-48 49 -109 107 -137 129 -27 21 -84 70 -125 109 -41 38 -97 88 -125 110 -27 22 -55 45 -62 51 -6 6 -34 25 -62 43 -39 25 -51 39 -51 58 0 38 -19 508 -24 589 l-4 71 66 -13 c37 -7 294 -57 572 -109z m-506 -884 c94 -81 274 -262 370 -374 67 -77 67 -78 59 -120 -13 -66 -2 -119 26 -134 34 -16 54 -3 88 55 61 106 106 163 159 201 54 39 150 79 161 68 3 -3 -14 -108 -38 -233 -32 -167 -48 -228 -59 -231 -52 -15 -67 -60 -29 -87 l23 -16 -93 -482 c-52 -266 -94 -484 -95 -485 -1 -1 -67 48 -146 110 -180 139 -278 206 -380 257 -77 39 -79 40 -84 82 -5 39 -57 1364 -56 1431 0 15 3 27 6 27 4 0 43 -31 88 -69z m171 -2032 c28 -18 96 -73 153 -123 57 -50 117 -99 133 -110 24 -15 29 -24 24 -45 -3 -14 -50 -258 -105 -541 -55 -283 -103 -524 -106 -535 -10 -31 -209 -283 -215 -272 -1 1 -16 351 -34 777 -21 513 -29 782 -22 795 19 40 71 85 97 85 14 0 48 -14 75 -31z m-43 -2079 l-47 -235 -7 179 -7 179 52 57 c29 31 53 57 54 56 1 -1 -19 -107 -45 -236z"
       id="path1388"
       transform="matrix(0.08,0,0,-0.08,0,787.20002)" />
    <path
       style=""
       d="m 3985,8575 c -1551,-63 -2845,-118 -2875,-124 -114,-23 -132,-31 -196,-95 -72,-72 -84,-102 -91,-226 -2,-47 43,-1273 101,-2724 80,-1995 110,-2652 121,-2695 29,-113 118,-198 236,-223 61,-13 110,-13 387,-2 174,7 439,18 587,23 3937,154 4814,191 4889,208 117,25 207,104 238,206 22,72 13,375 -92,2972 -73,1837 -104,2514 -114,2552 -20,73 -50,118 -112,164 -55,42 -167,80 -229,78 -16,-1 -1299,-52 -2850,-114 z m 2906,-152 c 15,-9 33,-28 38,-42 6,-14 22.1056,-284.2749 27,-421 4.8944,-136.7251 13,-395 3,-399 -6,-2 -47,-21 -89,-42 -59,-30 -95,-57 -149,-114 -39,-41 -73,-75 -76,-75 -3,0 -36,22 -73,49 -37,27 -122,76 -188,108 -65,33 -137,71 -160,85 -130,83 -321,159 -599,238 -82,23 -196,55 -252,71 -117,34 -259,62 -390,80 -117,15 -455,7 -535,-14 l -57,-14 -12,35 c -24,72 -132,273 -171,317 l -40,45 h 36 c 20,0 148,5 284,10 136,6 540,22 897,36 610,24 1450,60 1468,63 5,0 22,-7 38,-16 z M 3061,8234 c -69,-63 -147,-162 -168,-213 -22,-53 -53,-224 -53,-295 0,-66 32,-210 69,-307 27,-71 117,-180 178,-215 27,-15 50,-29 52,-31 2,-1 -17,-25 -42,-52 -55,-59 -135,-178 -180,-270 -24,-49 -44,-74 -76,-96 -56,-39 -99,-115 -151,-267 -43,-128 -124,-535 -117,-585 4,-21 1,-36 -9,-44 -25,-21 -121,-171 -142,-224 -58,-140 -93,-252 -107,-337 -16,-100 -22,-267 -10,-309 6,-26 6,-26 -82,-43 -48,-8 -131,-23 -183,-31 -106,-18 -217,-45 -300,-73 -30,-11 -107,-37 -170,-59 -137,-48 -185,-78 -227,-144 -31,-50 -31,-52 -27,-156 2,-59 6,-113 8,-122 3,-9 10,-74 16,-146 12,-152 36,-324 56,-414 8,-35 14,-65 12,-67 -2,-1 -37,-14 -78,-27 l -75,-25 -7,47 c -4,25 -46,1029 -93,2229 -80,2019 -85,2186 -70,2208 9,14 26,29 38,34 12,5 278,18 592,30 541,21 1365,56 1393,59 7,0 -14,-24 -47,-55 z m 775,35 c 113,-35 176,-72 231,-136 102,-119 129,-183 139,-322 4,-47 11,-91 16,-97 19,-25 77,-24 194,1 76,16 167,28 254,32 160,7 447,-11 580,-37 122,-23 412,-103 476,-131 27,-11 92,-36 144,-55 99,-36 311,-143 415,-209 33,-21 118,-79 188,-128 114,-80 128,-93 124,-114 -6,-33 11,-104 30,-125 22,-25 60,-23 77,5 8,12 24,56 36,97 12,41 34,97 48,123 27,50 105,128 160,160 l 30,17 6,-72 c 3,-40 8,-145 12,-234 l 6,-161 -31,-31 c -35,-35 -33,-55 8,-77 l 27,-14 19,-478 c 10,-264 16,-484 14,-490 -2,-7 -70,19 -167,63 -261,119 -245,114 -682,228 -118,31 -289,76 -380,101 -91,25 -336,88 -545,140 -209,52 -443,111 -520,131 -413,107 -992,222 -1260,249 -246,26 -425,55 -425,69 0,43 129,203 250,312 85,76 319,238 417,287 57,29 173,108 192,131 7,8 11,32 9,53 -3,35 -7,40 -73,78 -106,61 -221,183 -309,328 -23,38 -73,39 -82,1 -11,-44 3,-173 24,-215 11,-22 16,-42 11,-45 -16,-10 -48,-81 -55,-122 -5,-32 -2,-44 15,-61 12,-12 25,-21 31,-21 5,0 32,20 60,45 28,25 56,45 63,45 7,-1 32,-18 56,-40 l 45,-39 -30,-11 c -109,-41 -225,-100 -291,-147 l -77,-55 -53,16 c -73,23 -159,104 -203,192 -34,65 -34,70 -33,180 2,127 27,239 70,313 64,110 231,230 378,272 91,26 273,25 361,-2 z m 309,-1836 c 3,-9 -1,-26 -9,-38 -16,-25 -220,-155 -361,-230 -49,-27 -130,-74 -180,-105 -49,-31 -171,-104 -270,-162 -99,-58 -220,-131 -269,-162 -49,-31 -95,-56 -101,-56 -15,0 -45,43 -45,66 0,18 21,37 105,94 82,55 552,337 700,420 121,67 252,146 312,186 28,19 38,21 72,12 22,-6 42,-17 46,-25 z m 418,-98 c 43,-14 95,-28 117,-31 47,-8 51,-24 13,-54 -76,-59 -344,-237 -468,-310 -77,-45 -206,-127 -286,-180 -80,-54 -210,-137 -290,-183 -79,-47 -173,-103 -209,-125 -36,-22 -89,-53 -118,-68 l -53,-27 -54,17 c -75,23 -115,59 -115,101 0,19 5,45 11,59 14,30 340,250 497,336 59,31 153,86 209,121 56,35 162,99 235,142 73,43 183,113 243,157 125,90 124,90 268,45 z M 2718,5620 c 49,-88 163,-237 217,-281 74,-61 222,-113 395,-137 219,-31 234,-32 390,-23 131,7 152,11 222,40 42,18 83,39 90,48 25,30 120,95 181,124 95,44 156,47 251,13 43,-15 91,-38 106,-51 15,-12 56,-75 91,-139 96,-174 95,-172 229,-262 332,-221 547,-287 945,-286 226,0 234,2 341,108 118,118 212,273 324,535 81,191 80,189 111,200 39,14 98,-8 279,-101 80,-41 151,-77 159,-80 11,-3 18,-107 36,-558 14,-361 19,-567 13,-589 -16,-56 -126,-280 -177,-360 -98,-154 -141,-264 -141,-364 0,-71 35,-234 81,-380 23,-70 40,-129 38,-131 -5,-3 -3773,-153 -3777,-150 -2,1 1,18 6,38 6,22 7,61 1,103 -5,37 -13,109 -19,158 -6,50 -22,146 -35,215 -14,69 -42,220 -64,335 -53,288 -133,683 -177,878 -20,89 -40,178 -44,197 -20,96 -33,126 -74,164 -50,47 -95,68 -161,75 -48,6 -51,8 -64,46 -24,65 -20,243 8,345 33,124 144,330 178,330 5,0 23,-27 41,-60 z m -154,-835 c 20,-10 41,-30 49,-48 23,-50 74,-242 97,-368 12,-63 37,-184 56,-269 18,-85 41,-202 49,-260 9,-58 22,-141 30,-185 19,-108 48,-318 85,-605 20,-160 21,-177 8,-187 -7,-6 -59,-27 -116,-47 -100,-35 -108,-36 -320,-46 -294,-13 -327,-13 -314,3 30,36 54,156 59,292 5,129 3,148 -21,237 -37,141 -65,190 -168,291 -71,69 -107,96 -171,127 -89,42 -184,63 -252,53 -23,-3 -45,-1 -48,3 -4,8 -38,167 -67,319 -5,28 -12,82 -15,120 -3,39 -11,115 -18,170 -16,114 -10,155 28,195 48,50 224,120 354,141 80,13 140,24 276,53 159,33 164,34 282,30 69,-2 113,-8 137,-19 z M 7139,3360 c 12,-310 11,-343 -3,-365 -9,-14 -20,-25 -25,-25 -8,0 -80,190 -105,280 -15,54 -19,99 -17,191 1,35 10,60 41,110 22,35 50,83 62,107 12,23 25,42 28,42 4,0 12,-153 19,-340 z m -5358,244 c 5,-3 -12,-20 -38,-37 -26,-18 -54,-44 -62,-59 -14,-24 -14,-28 3,-47 28,-30 52,-26 131,24 39,25 76,48 83,51 15,8 61,-33 103,-90 l 29,-39 -23,-31 c -47,-62 -70,-113 -63,-139 12,-49 73,-47 103,4 9,16 20,29 24,29 11,0 19,-164 10,-221 -21,-127 -84,-299 -110,-300 -9,0 -153,-6 -321,-13 -190,-8 -313,-10 -326,-4 -11,5 -25,18 -32,28 -7,11 -15,116 -21,272 -6,139 -13,299 -16,355 l -6,102 65,30 c 159,75 272,103 384,96 41,-3 78,-7 83,-11 z"
       id="path1390"
       inkscape:connector-curvature="0"
       sodipodi:nodetypes="ccsccccccccccccccczcccssccccccccccsccccccscccccccccccccccccccccccccccscccccccccccccccccsccccccsccccccssccscccccccsccsssccccccccccscccccsssscccccccccccscccsccssccccccccccccccccccccccsccccccccccccccsccccccccccccccccccccccccccccsscccsccccccccccccsccccccccccc"
       transform="matrix(0.08,0,0,-0.08,0,787.20002)" />
  </g>
</svg>
